<?xml version="1.0" encoding="utf-8"?>
<!-- Generator: $$$/GeneralStr/196=Adobe Illustrator 27.6.0, SVG Export Plug-In . SVG Version: 6.00 Build 0)  -->
<svg version="1.1" id="图层_1" xmlns="http://www.w3.org/2000/svg" xmlns:xlink="http://www.w3.org/1999/xlink" x="0px" y="0px"
	 viewBox="0 0 64 64" style="enable-background:new 0 0 64 64;" xml:space="preserve">
<style type="text/css">
	.st0{fill:#FFFFFF;}
</style>
<path class="st0" d="M42.1,23.2c0-0.7-0.6-1.3-1.3-1.3l0,0h-6.3c-0.7,0-1.3,0.6-1.3,1.3c0,0.7,0.6,1.3,1.3,1.3h3.2l-4.1,4.2
	c-0.5,0.5-0.5,1.3,0,1.8c0,0,0,0,0,0c0.5,0.5,1.3,0.5,1.8,0c0,0,0,0,0,0l4.2-4.2v3.3c0,0.7,0.6,1.3,1.3,1.3l0,0
	c0.7,0,1.3-0.6,1.3-1.3l0,0V23.2z M30.4,33.6c-0.5-0.5-1.3-0.5-1.8,0c0,0,0,0,0,0l-4.2,4.1v-3.2c0-0.7-0.6-1.3-1.3-1.3l0,0
	c-0.7,0-1.3,0.6-1.3,1.3l0,0v6.3c0,0.7,0.6,1.3,1.3,1.3l0,0h6.3c0.7,0,1.3-0.6,1.3-1.3c0-0.7-0.6-1.3-1.3-1.3h-3.3l4.2-4.2
	C30.9,34.9,30.9,34.1,30.4,33.6C30.4,33.6,30.4,33.6,30.4,33.6z"/>
</svg>
