<?xml version="1.0" encoding="UTF-8"?><svg id="_图层_1" xmlns="http://www.w3.org/2000/svg" viewBox="0 0 22.2 22.4"><path d="m2.3,1.1c-.7,0-1.3.6-1.3,1.3h0v6.3c0,.7.6,1.3,1.3,1.3s1.3-.6,1.3-1.3v-3.2l4.2,4.1c.5.5,1.3.5,1.8,0h0c.5-.5.5-1.3,0-1.8h0L5.4,3.6h3.3c.7,0,1.3-.6,1.3-1.3h0c0-.7-.6-1.3-1.3-1.3H2.3v.1Zm10.4,11.7c-.5.5-.5,1.3,0,1.8h0l4.1,4.2h-3.2c-.7,0-1.3.6-1.3,1.3h0c0,.7.6,1.3,1.3,1.3h6.3c.7,0,1.3-.6,1.3-1.3h0v-6.3c0-.7-.6-1.3-1.3-1.3s-1.3.6-1.3,1.3v3.3l-4.2-4.2c-.4-.6-1.2-.6-1.7-.1h0Z" style="fill:#7f7f7f;"/></svg>