<?xml version="1.0" encoding="utf-8"?>
<!-- Generator: $$$/GeneralStr/196=Adobe Illustrator 27.6.0, SVG Export Plug-In . SVG Version: 6.00 Build 0)  -->
<svg version="1.1" id="图层_1" xmlns="http://www.w3.org/2000/svg" xmlns:xlink="http://www.w3.org/1999/xlink" x="0px" y="0px"
	 viewBox="0 0 64 64" style="enable-background:new 0 0 64 64;" xml:space="preserve">
<style type="text/css">
	.st0{display:none;fill:#7F7F7F;}
	.st1{fill:#7F7F7F;}
	.st2{fill:none;stroke:#7F7F7F;stroke-width:2;stroke-linecap:round;stroke-miterlimit:10;}
</style>
<path class="st0" d="M23.2,21.9c-0.7,0-1.3,0.6-1.3,1.3l0,0v6.3c0,0.7,0.6,1.3,1.3,1.3c0.7,0,1.3-0.6,1.3-1.3v-3.2l4.2,4.1
	c0.5,0.5,1.3,0.5,1.8,0l0,0c0.5-0.5,0.5-1.3,0-1.8l0,0l-4.2-4.2h3.3c0.7,0,1.3-0.6,1.3-1.3l0,0c0-0.7-0.6-1.3-1.3-1.3l0,0h-6.4V21.9
	z M33.6,33.6c-0.5,0.5-0.5,1.3,0,1.8l0,0l4.1,4.2h-3.2c-0.7,0-1.3,0.6-1.3,1.3l0,0c0,0.7,0.6,1.3,1.3,1.3l0,0h6.3
	c0.7,0,1.3-0.6,1.3-1.3l0,0v-6.3c0-0.7-0.6-1.3-1.3-1.3s-1.3,0.6-1.3,1.3v3.3l-4.2-4.2C34.9,33.1,34.1,33.1,33.6,33.6L33.6,33.6z"/>
<g>
	<path class="st1" d="M22.2,20.9c-0.7,0-1.3,0.6-1.3,1.3l0,0v6.3c0,0.7,0.6,1.3,1.3,1.3c0.7,0,1.3-0.6,1.3-1.3v-3.2l4.2,4.1
		c0.5,0.5,1.3,0.5,1.8,0l0,0c0.5-0.5,0.5-1.3,0-1.8l0,0l-4.2-4.2h3.3c0.7,0,1.3-0.6,1.3-1.3l0,0c0-0.7-0.6-1.3-1.3-1.3l0,0h-6.4
		V20.9z M34.6,34.6c-0.5,0.5-0.5,1.3,0,1.8l0,0l4.1,4.2h-3.2c-0.7,0-1.3,0.6-1.3,1.3l0,0c0,0.7,0.6,1.3,1.3,1.3l0,0h6.3
		c0.7,0,1.3-0.6,1.3-1.3l0,0v-6.3c0-0.7-0.6-1.3-1.3-1.3s-1.3,0.6-1.3,1.3v3.3l-4.2-4.2C35.9,34.1,35.1,34.1,34.6,34.6L34.6,34.6z"
		/>
	<path class="st2" d="M36.4,21.8c0,8-6.5,14.5-14.5,14.5"/>
</g>
</svg>
