<?xml version="1.0" encoding="UTF-8"?><svg id="_图层_1" xmlns="http://www.w3.org/2000/svg" viewBox="0 0 22.2 22.4"><path d="m21.88,10.43l-3.33-3.33c-.44-.44-1.14-.44-1.58,0s-.44,1.14,0,1.58l1.43,1.41h-6.19V3.89l1.43,1.44c.21.21.49.32.79.32.3,0,.58-.11.79-.32.44-.43.44-1.13,0-1.57,0,0,0,0,0,0L11.89.42c-.21-.21-.49-.32-.79-.32-.29,0-.57.12-.78.32l-3.33,3.33c-.44.43-.44,1.14,0,1.57.43.44,1.14.44,1.57,0h0l1.43-1.43v6.19H3.79l1.44-1.43c.44-.44.44-1.14,0-1.58s-1.14-.44-1.58,0L.32,10.41C.11,10.62,0,10.9,0,11.2c0,.3.11.58.32.79l3.33,3.33c.21.21.49.32.79.32.3,0,.58-.11.79-.32.44-.43.44-1.13,0-1.57,0,0,0,0,0,0l-1.43-1.43h6.19v6.2l-1.43-1.44c-.44-.44-1.14-.44-1.58,0s-.44,1.14,0,1.58l3.33,3.33c.21.21.49.32.79.32.29,0,.57-.12.78-.32l3.33-3.33c.44-.44.44-1.14,0-1.58s-1.14-.44-1.58,0l-1.42,1.43v-6.19h6.2l-1.44,1.43c-.44.43-.44,1.13,0,1.57,0,0,0,0,0,0,.21.21.49.32.79.32.3,0,.58-.11.79-.32l3.33-3.33c.21-.21.32-.49.32-.79,0-.29-.12-.56-.32-.77Z" style="fill:#7f7f7f;"/></svg>