<?xml version="1.0" standalone="no"?><!DOCTYPE svg PUBLIC "-//W3C//DTD SVG 1.1//EN" "http://www.w3.org/Graphics/SVG/1.1/DTD/svg11.dtd"><svg t="1723967532588" class="icon" viewBox="0 0 1024 1024" version="1.1" xmlns="http://www.w3.org/2000/svg" p-id="4706" xmlns:xlink="http://www.w3.org/1999/xlink" width="64" height="64"><path d="M862.72 896a42.666667 42.666667 0 0 1-42.666667-32.426667 380.16 380.16 0 0 0-332.8-285.44v47.786667a75.946667 75.946667 0 0 1-46.506666 69.973333A85.333333 85.333333 0 0 1 349.013333 682.666667l-215.893333-188.16a75.093333 75.093333 0 0 1 0-114.346667l215.893333-188.586667a85.333333 85.333333 0 0 1 93.013334-12.8 75.946667 75.946667 0 0 1 46.506666 69.973334V298.666667A464.64 464.64 0 0 1 917.333333 757.333333a439.04 439.04 0 0 1-13.226666 106.24 42.666667 42.666667 0 0 1-42.666667 32.426667z m-416.853333-405.333333a472.32 472.32 0 0 1 375.893333 181.76A384 384 0 0 0 445.866667 384a42.666667 42.666667 0 0 1-42.666667-42.666667V259.413333l-205.653333 177.92 205.653333 179.626667v-85.333333a42.666667 42.666667 0 0 1 42.666667-40.96z" fill="#ffffff" p-id="4707"></path></svg>